<?xml version="1.0" encoding="UTF-8"?>
<svg xmlns="http://www.w3.org/2000/svg" xmlns:xlink="http://www.w3.org/1999/xlink" width="200px" height="150px" viewBox="0 0 482 150" version="1.1">
<g id="surface1">
<path style=" stroke:none;fill-rule:nonzero;fill:rgb(100%,100%,100%);fill-opacity:1;" d="M 13.390625 127.074219 L 41.863281 127.074219 L 41.863281 124.710938 C 33.917969 123.683594 31.285156 121.183594 31.285156 116.628906 C 31.285156 114.128906 32.042969 111.050781 33.917969 105.601562 L 41.105469 85.601562 L 72.703125 85.601562 L 79.441406 105.425781 C 81.492188 111.449219 82.652344 114.664062 82.652344 117.476562 C 82.652344 121.898438 79.886719 123.636719 72.078125 124.664062 L 72.078125 127.03125 L 112.601562 127.03125 L 112.601562 124.664062 C 104.210938 123.949219 100.550781 113.503906 96.757812 102.34375 L 69.488281 22.34375 L 68.328125 22.34375 C 66.722656 24.710938 62.617188 27.613281 57.4375 30.738281 L 29.8125 104.308594 C 24.101562 119.441406 20.304688 122.835938 13.390625 124.753906 Z M 42.621094 81.675781 L 57.304688 40.960938 L 71.273438 81.675781 Z M 118.089844 127.074219 L 149.507812 127.074219 L 149.507812 124.710938 C 144.824219 124.128906 141.117188 122.34375 138.796875 118.996094 C 136.746094 116.050781 135.585938 111.808594 135.585938 98.726562 L 135.585938 34.398438 L 174.367188 127.65625 L 175.839844 127.65625 C 177.761719 121.761719 190.210938 94.175781 201.234375 68.011719 C 209.3125 48.773438 215.785156 32.613281 215.917969 32.300781 L 215.917969 98.863281 C 215.917969 114.441406 215.203125 118.101562 213.554688 120.46875 C 211.945312 122.835938 208.867188 124.128906 203.734375 124.710938 L 203.734375 127.074219 L 243.988281 127.074219 L 243.988281 124.710938 C 239.4375 124.128906 236.804688 122.789062 235.332031 120.46875 C 233.859375 118.148438 233.277344 114.441406 233.277344 98.863281 L 233.277344 52.613281 C 233.277344 36.898438 233.859375 33.238281 235.332031 30.871094 C 236.804688 28.371094 239.4375 27.210938 243.988281 26.628906 L 243.988281 24.261719 L 214.757812 24.261719 C 213.417969 28.371094 210.519531 35.558594 205.964844 46.585938 C 194.226562 74.933594 189.097656 86.988281 182.042969 102.835938 L 149.867188 24.261719 L 120.8125 24.261719 L 120.8125 26.628906 C 129.917969 28.101562 131.835938 33.371094 131.835938 45.15625 L 131.835938 92.878906 C 131.835938 108.460938 130.808594 114.488281 128.621094 118.28125 C 126.4375 122.074219 122.910156 124.175781 118.179688 124.753906 L 118.179688 127.074219 Z M 258.761719 127.074219 L 297.679688 127.074219 L 297.679688 124.710938 C 293.128906 124.128906 290.496094 122.789062 289.019531 120.46875 C 287.546875 118.148438 286.96875 114.441406 286.96875 98.863281 L 286.96875 52.613281 C 286.96875 36.898438 287.546875 33.238281 289.019531 30.871094 C 290.496094 28.371094 293.128906 27.210938 297.679688 26.628906 L 297.679688 24.261719 L 258.761719 24.261719 L 258.761719 26.628906 C 263.316406 27.210938 265.949219 28.414062 267.421875 30.871094 C 268.894531 33.238281 269.472656 36.898438 269.472656 52.613281 L 269.472656 98.863281 C 269.472656 114.441406 268.894531 118.101562 267.421875 120.46875 C 265.949219 122.835938 263.316406 124.128906 258.761719 124.710938 Z M 312.542969 127.074219 L 352.929688 127.074219 L 352.929688 124.710938 C 347.664062 124.128906 344.273438 122.789062 342.800781 120.46875 C 341.328125 118.101562 340.746094 114.441406 340.746094 98.863281 L 340.746094 77.835938 C 346.773438 77.835938 349.984375 78.28125 353.066406 79.574219 C 356.144531 80.914062 358.332031 83.550781 365.382812 94.84375 L 371.71875 105.113281 C 378.773438 116.585938 383.011719 123.636719 385.511719 126.988281 L 412.691406 126.988281 L 412.691406 124.621094 C 405.191406 123.59375 401.980469 120.378906 386.714844 96.851562 C 379.351562 85.558594 375.113281 79.085938 369.980469 73.773438 C 383.324219 70.246094 395.820312 63.773438 395.820312 48.949219 C 395.820312 35.15625 385.242188 26.761719 367.035156 25.023438 C 360.875 24.441406 351.457031 24.128906 345.433594 24.128906 L 312.542969 24.128906 L 312.542969 26.496094 C 317.09375 27.074219 319.726562 28.28125 321.199219 30.738281 C 322.671875 33.101562 323.253906 36.761719 323.253906 52.476562 L 323.253906 98.726562 C 323.253906 114.308594 322.671875 117.96875 321.199219 120.335938 C 319.726562 122.699219 317.09375 123.996094 312.542969 124.574219 Z M 340.746094 74.488281 L 340.746094 27.925781 L 344.71875 27.925781 C 365.425781 27.925781 377.164062 35.558594 377.164062 50.558594 C 377.164062 65.960938 364.355469 74.21875 340.746094 74.488281 Z M 420.769531 127.074219 L 459.683594 127.074219 L 459.683594 124.710938 C 455.132812 124.128906 452.5 122.789062 451.027344 120.46875 C 449.554688 118.148438 448.972656 114.441406 448.972656 98.863281 L 448.972656 52.613281 C 448.972656 36.898438 449.554688 33.238281 451.027344 30.871094 C 452.5 28.371094 455.132812 27.210938 459.683594 26.628906 L 459.683594 24.261719 L 420.769531 24.261719 L 420.769531 26.628906 C 425.320312 27.210938 427.953125 28.414062 429.425781 30.871094 C 430.898438 33.238281 431.480469 36.898438 431.480469 52.613281 L 431.480469 98.863281 C 431.480469 114.441406 430.898438 118.101562 429.425781 120.46875 C 427.953125 122.835938 425.320312 124.128906 420.769531 124.710938 Z M 420.769531 127.074219 "/>
</g>
</svg>
